<svg width="40" height="40" viewBox="0 0 40 40" fill="none" xmlns="http://www.w3.org/2000/svg">
<g clip-path="url(#clip0_2164_252)">
<mask id="mask0_2164_252" style="mask-type:luminance" maskUnits="userSpaceOnUse" x="0" y="0" width="40" height="40">
<path d="M0 3.8147e-06H40V40H0V3.8147e-06Z" fill="white"/>
</mask>
<g mask="url(#mask0_2164_252)">
<path d="M28.5189 25.6899C23.8139 30.395 16.1854 30.395 11.4804 25.6899L9.35059 15.0408L15.74 17.1706L19.9996 10.7812L24.2593 17.1706L30.6488 15.0408L28.5189 25.6899Z" stroke="white" stroke-width="2" stroke-miterlimit="10" stroke-linecap="round" stroke-linejoin="round"/>
<path d="M38.4375 20C38.4375 30.1827 30.1827 38.4375 20 38.4375C9.81726 38.4375 1.5625 30.1827 1.5625 20C1.5625 9.81727 9.81726 1.5625 20 1.5625C30.1827 1.5625 38.4375 9.81727 38.4375 20Z" stroke="white" stroke-width="2" stroke-miterlimit="10" stroke-linecap="round" stroke-linejoin="round"/>
</g>
</g>
<defs>
<clipPath id="clip0_2164_252">
<rect width="40" height="40" fill="white"/>
</clipPath>
</defs>
</svg>
