<svg xmlns="http://www.w3.org/2000/svg" xmlns:xlink="http://www.w3.org/1999/xlink" width="158" zoomAndPan="magnify" viewBox="0 0 118.5 48.75" height="65" preserveAspectRatio="xMidYMid meet" version="1.0"><path fill="#05264e" d="M 3.703125 7.203125 L 12.9375 7.203125 C 15.5 7.203125 17.460938 7.886719 18.828125 9.25 C 19.984375 10.40625 20.558594 11.945312 20.558594 13.871094 L 20.558594 13.929688 C 20.558594 15.5625 20.160156 16.898438 19.363281 17.925781 C 18.5625 18.957031 17.519531 19.710938 16.230469 20.191406 L 21.167969 27.410156 L 15.96875 27.410156 L 11.640625 20.941406 L 8.148438 20.941406 L 8.148438 27.410156 L 3.703125 27.410156 Z M 12.652344 17.015625 C 13.746094 17.015625 14.589844 16.757812 15.175781 16.238281 C 15.761719 15.71875 16.058594 15.023438 16.058594 14.160156 L 16.058594 14.101562 C 16.058594 13.140625 15.75 12.417969 15.132812 11.9375 C 14.515625 11.453125 13.660156 11.214844 12.5625 11.214844 L 8.148438 11.214844 L 8.148438 17.015625 Z M 12.652344 17.015625 " fill-opacity="1" fill-rule="nonzero"/><path fill="#05264e" d="M 31.441406 27.753906 C 30.289062 27.753906 29.214844 27.5625 28.222656 27.175781 C 27.234375 26.792969 26.375 26.246094 25.65625 25.53125 C 24.933594 24.820312 24.371094 23.976562 23.964844 23.007812 C 23.5625 22.035156 23.359375 20.953125 23.359375 19.757812 L 23.359375 19.699219 C 23.359375 18.605469 23.546875 17.566406 23.921875 16.582031 C 24.296875 15.601562 24.820312 14.746094 25.496094 14.015625 C 26.167969 13.28125 26.972656 12.707031 27.90625 12.28125 C 28.839844 11.859375 29.875 11.648438 31.007812 11.648438 C 32.296875 11.648438 33.414062 11.878906 34.359375 12.339844 C 35.300781 12.800781 36.085938 13.421875 36.710938 14.203125 C 37.335938 14.980469 37.796875 15.875 38.097656 16.886719 C 38.394531 17.898438 38.542969 18.949219 38.542969 20.046875 C 38.542969 20.222656 38.539062 20.402344 38.53125 20.597656 C 38.519531 20.789062 38.503906 20.992188 38.484375 21.203125 L 27.71875 21.203125 C 27.929688 22.203125 28.367188 22.957031 29.03125 23.46875 C 29.695312 23.976562 30.519531 24.234375 31.5 24.234375 C 32.230469 24.234375 32.886719 24.109375 33.464844 23.859375 C 34.039062 23.609375 34.636719 23.203125 35.253906 22.644531 L 37.765625 24.867188 C 37.035156 25.773438 36.148438 26.480469 35.109375 26.988281 C 34.070312 27.5 32.847656 27.753906 31.441406 27.753906 Z M 34.269531 18.460938 C 34.136719 17.476562 33.789062 16.683594 33.230469 16.078125 C 32.675781 15.472656 31.933594 15.167969 31.007812 15.167969 C 30.085938 15.167969 29.339844 15.46875 28.773438 16.0625 C 28.203125 16.660156 27.835938 17.460938 27.660156 18.460938 Z M 34.269531 18.460938 " fill-opacity="1" fill-rule="nonzero"/><path fill="#05264e" d="M 41.804688 6.335938 L 46.191406 6.335938 L 46.191406 17.566406 L 51.332031 11.9375 L 56.585938 11.9375 L 50.695312 18.027344 L 56.785156 27.410156 L 51.765625 27.410156 L 47.722656 21.085938 L 46.191406 22.703125 L 46.191406 27.410156 L 41.804688 27.410156 Z M 41.804688 6.335938 " fill-opacity="1" fill-rule="nonzero"/><path fill="#05264e" d="M 58.894531 11.9375 L 63.28125 11.9375 L 63.28125 15.054688 C 63.726562 13.996094 64.332031 13.148438 65.101562 12.511719 C 65.871094 11.878906 66.910156 11.589844 68.21875 11.648438 L 68.21875 16.238281 L 67.988281 16.238281 C 66.523438 16.238281 65.375 16.679688 64.539062 17.566406 C 63.699219 18.449219 63.28125 19.828125 63.28125 21.691406 L 63.28125 27.40625 L 58.894531 27.40625 Z M 58.894531 11.9375 " fill-opacity="1" fill-rule="nonzero"/><path fill="#05264e" d="M 76.097656 27.695312 C 74.425781 27.695312 73.128906 27.1875 72.214844 26.167969 C 71.300781 25.148438 70.84375 23.742188 70.84375 21.953125 L 70.84375 11.9375 L 75.234375 11.9375 L 75.234375 20.546875 C 75.234375 21.582031 75.464844 22.363281 75.925781 22.894531 C 76.386719 23.421875 77.042969 23.683594 77.890625 23.683594 C 78.734375 23.683594 79.402344 23.421875 79.894531 22.894531 C 80.386719 22.367188 80.632812 21.582031 80.632812 20.546875 L 80.632812 11.9375 L 85.019531 11.9375 L 85.019531 27.410156 L 80.632812 27.410156 L 80.632812 25.195312 C 80.382812 25.527344 80.105469 25.839844 79.808594 26.140625 C 79.507812 26.441406 79.179688 26.707031 78.8125 26.941406 C 78.445312 27.175781 78.042969 27.359375 77.601562 27.492188 C 77.15625 27.628906 76.65625 27.695312 76.097656 27.695312 Z M 76.097656 27.695312 " fill-opacity="1" fill-rule="nonzero"/><path fill="#05264e" d="M 94.167969 27.667969 C 93.496094 27.667969 92.882812 27.597656 92.335938 27.453125 C 91.789062 27.308594 91.316406 27.050781 90.921875 26.6875 C 90.527344 26.320312 90.21875 25.84375 89.996094 25.257812 C 89.777344 24.671875 89.664062 23.925781 89.664062 23.019531 L 89.664062 15.6875 L 87.820312 15.6875 L 87.820312 11.9375 L 89.664062 11.9375 L 89.664062 7.980469 L 94.054688 7.980469 L 94.054688 11.9375 L 97.691406 11.9375 L 97.691406 15.6875 L 94.054688 15.6875 L 94.054688 22.324219 C 94.054688 23.328125 94.523438 23.828125 95.46875 23.828125 C 96.238281 23.828125 96.960938 23.636719 97.632812 23.25 L 97.632812 26.773438 C 97.171875 27.042969 96.660156 27.257812 96.101562 27.421875 C 95.542969 27.585938 94.898438 27.667969 94.167969 27.667969 Z M 94.167969 27.667969 " fill-opacity="1" fill-rule="nonzero"/><path fill="#05264e" d="M 108.253906 27.753906 C 107.101562 27.753906 106.027344 27.5625 105.035156 27.175781 C 104.046875 26.792969 103.191406 26.246094 102.46875 25.53125 C 101.746094 24.820312 101.183594 23.976562 100.777344 23.007812 C 100.375 22.035156 100.171875 20.953125 100.171875 19.757812 L 100.171875 19.699219 C 100.171875 18.605469 100.359375 17.566406 100.734375 16.582031 C 101.109375 15.601562 101.632812 14.746094 102.308594 14.015625 C 102.980469 13.28125 103.785156 12.707031 104.71875 12.28125 C 105.652344 11.859375 106.6875 11.648438 107.820312 11.648438 C 109.109375 11.648438 110.226562 11.878906 111.171875 12.339844 C 112.113281 12.800781 112.898438 13.421875 113.523438 14.203125 C 114.148438 14.980469 114.609375 15.875 114.910156 16.886719 C 115.207031 17.898438 115.355469 18.949219 115.355469 20.046875 C 115.355469 20.222656 115.351562 20.402344 115.339844 20.597656 C 115.332031 20.789062 115.316406 20.992188 115.296875 21.203125 L 104.53125 21.203125 C 104.742188 22.203125 105.179688 22.957031 105.84375 23.46875 C 106.507812 23.976562 107.332031 24.234375 108.3125 24.234375 C 109.042969 24.234375 109.699219 24.109375 110.277344 23.859375 C 110.851562 23.609375 111.449219 23.203125 112.066406 22.644531 L 114.578125 24.867188 C 113.84375 25.773438 112.960938 26.480469 111.921875 26.988281 C 110.882812 27.5 109.660156 27.753906 108.253906 27.753906 Z M 111.085938 18.460938 C 110.949219 17.476562 110.601562 16.683594 110.046875 16.078125 C 109.488281 15.472656 108.746094 15.167969 107.824219 15.167969 C 106.898438 15.167969 106.152344 15.46875 105.585938 16.0625 C 105.015625 16.660156 104.648438 17.460938 104.472656 18.460938 Z M 111.085938 18.460938 " fill-opacity="1" fill-rule="nonzero"/><path fill="#426af5" d="M 39.742188 30.765625 L 58.851562 30.765625 L 58.851562 34.378906 L 39.742188 34.378906 Z M 39.742188 30.765625 " fill-opacity="1" fill-rule="nonzero"/><path fill="#05264e" d="M 71.4375 34.453125 L 71.917969 34.453125 L 73.441406 36.738281 L 74.96875 34.453125 L 75.449219 34.453125 L 75.449219 38.640625 L 74.976562 38.640625 L 74.976562 35.246094 L 73.449219 37.492188 L 73.425781 37.492188 L 71.898438 35.253906 L 71.898438 38.640625 L 71.4375 38.640625 Z M 71.4375 34.453125 " fill-opacity="1" fill-rule="nonzero"/><path fill="#05264e" d="M 76.171875 37.742188 L 76.171875 37.730469 C 76.171875 37.078125 76.710938 36.730469 77.492188 36.730469 C 77.886719 36.730469 78.167969 36.785156 78.445312 36.863281 L 78.445312 36.757812 C 78.445312 36.199219 78.105469 35.910156 77.523438 35.910156 C 77.15625 35.910156 76.871094 36.007812 76.582031 36.140625 L 76.445312 35.761719 C 76.785156 35.605469 77.121094 35.503906 77.570312 35.503906 C 78.007812 35.503906 78.34375 35.617188 78.570312 35.847656 C 78.78125 36.054688 78.886719 36.355469 78.886719 36.75 L 78.886719 38.640625 L 78.445312 38.640625 L 78.445312 38.175781 C 78.230469 38.457031 77.871094 38.707031 77.324219 38.707031 C 76.75 38.707031 76.171875 38.378906 76.171875 37.742188 Z M 78.449219 37.503906 L 78.449219 37.203125 C 78.222656 37.140625 77.917969 37.074219 77.539062 37.074219 C 76.960938 37.074219 76.636719 37.324219 76.636719 37.714844 L 76.636719 37.726562 C 76.636719 38.113281 76.996094 38.34375 77.414062 38.34375 C 77.984375 38.339844 78.449219 37.996094 78.449219 37.503906 Z M 78.449219 37.503906 " fill-opacity="1" fill-rule="nonzero"/><path fill="#05264e" d="M 79.71875 34.273438 L 80.179688 34.273438 L 80.179688 37.289062 L 81.847656 35.546875 L 82.425781 35.546875 L 81.125 36.875 L 82.464844 38.640625 L 81.914062 38.640625 L 80.808594 37.199219 L 80.179688 37.832031 L 80.179688 38.640625 L 79.71875 38.640625 Z M 79.71875 34.273438 " fill-opacity="1" fill-rule="nonzero"/><path fill="#05264e" d="M 82.632812 37.101562 L 82.632812 37.089844 C 82.632812 36.199219 83.261719 35.480469 84.117188 35.480469 C 85.03125 35.480469 85.558594 36.210938 85.558594 37.113281 C 85.558594 37.175781 85.558594 37.210938 85.554688 37.265625 L 83.097656 37.265625 C 83.164062 37.933594 83.636719 38.3125 84.1875 38.3125 C 84.613281 38.3125 84.914062 38.136719 85.164062 37.875 L 85.453125 38.132812 C 85.140625 38.480469 84.761719 38.710938 84.175781 38.710938 C 83.328125 38.710938 82.632812 38.0625 82.632812 37.101562 Z M 85.09375 36.921875 C 85.042969 36.359375 84.722656 35.871094 84.105469 35.871094 C 83.566406 35.871094 83.160156 36.320312 83.097656 36.921875 Z M 85.09375 36.921875 " fill-opacity="1" fill-rule="nonzero"/><path fill="#05264e" d="M 87.863281 35.546875 L 88.324219 35.546875 L 88.324219 36.066406 C 88.527344 35.761719 88.800781 35.480469 89.324219 35.480469 C 89.824219 35.480469 90.148438 35.75 90.316406 36.097656 C 90.539062 35.757812 90.867188 35.480469 91.40625 35.480469 C 92.117188 35.480469 92.554688 35.960938 92.554688 36.726562 L 92.554688 38.640625 L 92.09375 38.640625 L 92.09375 36.832031 C 92.09375 36.234375 91.792969 35.898438 91.292969 35.898438 C 90.824219 35.898438 90.441406 36.246094 90.441406 36.855469 L 90.441406 38.640625 L 89.980469 38.640625 L 89.980469 36.820312 C 89.980469 36.242188 89.675781 35.898438 89.183594 35.898438 C 88.695312 35.898438 88.324219 36.304688 88.324219 36.875 L 88.324219 38.640625 L 87.863281 38.640625 Z M 87.863281 35.546875 " fill-opacity="1" fill-rule="nonzero"/><path fill="#05264e" d="M 93.210938 37.101562 L 93.210938 37.089844 C 93.210938 36.199219 93.839844 35.480469 94.695312 35.480469 C 95.613281 35.480469 96.136719 36.210938 96.136719 37.113281 C 96.136719 37.175781 96.136719 37.210938 96.132812 37.265625 L 93.679688 37.265625 C 93.746094 37.933594 94.21875 38.3125 94.769531 38.3125 C 95.191406 38.3125 95.492188 38.136719 95.742188 37.875 L 96.03125 38.132812 C 95.71875 38.480469 95.34375 38.710938 94.757812 38.710938 C 93.90625 38.710938 93.210938 38.0625 93.210938 37.101562 Z M 95.671875 36.921875 C 95.625 36.359375 95.300781 35.871094 94.683594 35.871094 C 94.144531 35.871094 93.738281 36.320312 93.679688 36.921875 Z M 95.671875 36.921875 " fill-opacity="1" fill-rule="nonzero"/><path fill="#05264e" d="M 98.902344 38.046875 L 98.902344 38.640625 L 98.441406 38.640625 L 98.441406 34.273438 L 98.902344 34.273438 L 98.902344 36.167969 C 99.152344 35.796875 99.519531 35.480469 100.085938 35.480469 C 100.828125 35.480469 101.566406 36.066406 101.566406 37.085938 L 101.566406 37.097656 C 101.566406 38.109375 100.835938 38.707031 100.085938 38.707031 C 99.511719 38.707031 99.140625 38.394531 98.902344 38.046875 Z M 101.09375 37.101562 L 101.09375 37.089844 C 101.09375 36.359375 100.589844 35.894531 100.003906 35.894531 C 99.429688 35.894531 98.882812 36.378906 98.882812 37.085938 L 98.882812 37.097656 C 98.882812 37.816406 99.429688 38.292969 100.003906 38.292969 C 100.601562 38.292969 101.09375 37.851562 101.09375 37.101562 Z M 101.09375 37.101562 " fill-opacity="1" fill-rule="nonzero"/><path fill="#05264e" d="M 102.074219 37.101562 L 102.074219 37.089844 C 102.074219 36.199219 102.703125 35.480469 103.558594 35.480469 C 104.472656 35.480469 105 36.210938 105 37.113281 C 105 37.175781 105 37.210938 104.992188 37.265625 L 102.539062 37.265625 C 102.605469 37.933594 103.078125 38.3125 103.628906 38.3125 C 104.054688 38.3125 104.355469 38.136719 104.605469 37.875 L 104.890625 38.132812 C 104.582031 38.480469 104.203125 38.710938 103.617188 38.710938 C 102.765625 38.710938 102.074219 38.0625 102.074219 37.101562 Z M 104.53125 36.921875 C 104.484375 36.359375 104.160156 35.871094 103.546875 35.871094 C 103.007812 35.871094 102.601562 36.320312 102.539062 36.921875 Z M 104.53125 36.921875 " fill-opacity="1" fill-rule="nonzero"/><path fill="#05264e" d="M 105.820312 37.820312 L 105.820312 35.953125 L 105.386719 35.953125 L 105.386719 35.546875 L 105.820312 35.546875 L 105.820312 34.613281 L 106.28125 34.613281 L 106.28125 35.546875 L 107.261719 35.546875 L 107.261719 35.953125 L 106.28125 35.953125 L 106.28125 37.761719 C 106.28125 38.136719 106.488281 38.277344 106.800781 38.277344 C 106.957031 38.277344 107.085938 38.246094 107.25 38.167969 L 107.25 38.5625 C 107.085938 38.648438 106.914062 38.695312 106.691406 38.695312 C 106.195312 38.695312 105.820312 38.449219 105.820312 37.820312 Z M 105.820312 37.820312 " fill-opacity="1" fill-rule="nonzero"/><path fill="#05264e" d="M 108.085938 37.820312 L 108.085938 35.953125 L 107.65625 35.953125 L 107.65625 35.546875 L 108.085938 35.546875 L 108.085938 34.613281 L 108.546875 34.613281 L 108.546875 35.546875 L 109.527344 35.546875 L 109.527344 35.953125 L 108.546875 35.953125 L 108.546875 37.761719 C 108.546875 38.136719 108.757812 38.277344 109.066406 38.277344 C 109.222656 38.277344 109.355469 38.246094 109.515625 38.167969 L 109.515625 38.5625 C 109.355469 38.648438 109.183594 38.695312 108.960938 38.695312 C 108.464844 38.695312 108.085938 38.449219 108.085938 37.820312 Z M 108.085938 37.820312 " fill-opacity="1" fill-rule="nonzero"/><path fill="#05264e" d="M 109.910156 37.101562 L 109.910156 37.089844 C 109.910156 36.199219 110.539062 35.480469 111.394531 35.480469 C 112.3125 35.480469 112.839844 36.210938 112.839844 37.113281 C 112.839844 37.175781 112.839844 37.210938 112.832031 37.265625 L 110.378906 37.265625 C 110.445312 37.933594 110.917969 38.3125 111.46875 38.3125 C 111.894531 38.3125 112.191406 38.136719 112.445312 37.875 L 112.730469 38.132812 C 112.417969 38.480469 112.042969 38.710938 111.457031 38.710938 C 110.605469 38.710938 109.910156 38.0625 109.910156 37.101562 Z M 112.371094 36.921875 C 112.324219 36.359375 112 35.871094 111.382812 35.871094 C 110.84375 35.871094 110.4375 36.320312 110.378906 36.921875 Z M 112.371094 36.921875 " fill-opacity="1" fill-rule="nonzero"/><path fill="#05264e" d="M 113.496094 35.546875 L 113.957031 35.546875 L 113.957031 36.355469 C 114.183594 35.839844 114.632812 35.46875 115.21875 35.492188 L 115.21875 35.988281 L 115.183594 35.988281 C 114.507812 35.988281 113.957031 36.472656 113.957031 37.410156 L 113.957031 38.640625 L 113.496094 38.640625 Z M 113.496094 35.546875 " fill-opacity="1" fill-rule="nonzero"/><path fill="#05264e" d="M 115.175781 38.011719 L 115.726562 38.011719 L 115.726562 38.640625 L 115.175781 38.640625 Z M 115.175781 38.011719 " fill-opacity="1" fill-rule="nonzero"/></svg>